<svg width="1024" height="1024" viewBox="0 0 1024 1024" fill="none" xmlns="http://www.w3.org/2000/svg">
<path d="M237.308 264.852C241.127 272.489 243.275 279.649 243.752 286.332C244.707 293.015 245.184 305.187 245.184 322.848C245.184 340.509 239.217 390.152 227.284 471.776L220.84 513.304C285.28 460.32 339.696 409.007 384.088 359.364C428.48 309.244 459.745 266.761 477.884 231.916C493.636 259.601 501.512 286.809 501.512 313.54C501.512 339.793 487.908 366.763 460.7 394.448C433.969 422.133 393.396 456.024 338.98 496.12C372.393 601.611 409.864 683.235 451.392 740.992C469.053 765.336 491.488 791.828 518.696 820.468C501.035 825.241 483.373 827.628 465.712 827.628C448.051 827.628 429.912 822.139 411.296 811.16C392.68 800.181 376.451 786.816 362.608 771.064C349.243 755.312 335.4 734.309 321.08 708.056C300.555 669.392 278.359 618.556 254.492 555.548C241.127 565.572 226.568 575.835 210.816 586.336C202.224 657.459 197.928 711.397 197.928 748.152C197.928 784.429 201.269 810.444 207.952 826.196C167.379 815.695 139.693 801.852 124.896 784.668C110.099 767.007 102.7 742.663 102.7 711.636C102.7 693.497 107.712 647.435 117.736 573.448C135.397 450.773 144.228 355.784 144.228 288.48C144.228 274.16 143.273 254.589 141.364 229.768C177.641 231.677 204.133 237.405 220.84 246.952C228 250.771 233.489 256.737 237.308 264.852Z" fill="#FF9797" fill-opacity="0.75"/>
<path d="M663.255 816.172C636.047 816.172 616.477 811.399 604.543 801.852C592.61 792.305 586.643 776.315 586.643 753.88C586.643 731.445 594.519 663.664 610.271 550.536C626.501 436.931 634.615 356.023 634.615 307.812C634.615 259.124 631.274 227.381 624.591 212.584C673.279 216.403 705.261 235.496 720.535 269.864C757.29 249.816 797.625 239.792 841.539 239.792C885.931 239.792 920.777 253.635 946.075 281.32C971.851 308.528 984.739 342.18 984.739 382.276C984.739 431.919 966.601 476.788 930.323 516.884C912.662 535.977 889.75 551.491 861.587 563.424C833.902 575.357 803.114 581.324 769.223 581.324C754.903 581.324 741.299 580.369 728.411 578.46L726.263 548.388C728.173 548.388 730.082 548.388 731.991 548.388C785.93 548.388 828.89 528.34 860.871 488.244C882.829 459.604 893.807 429.532 893.807 398.028C893.807 351.727 874.953 321.177 837.243 306.38C805.262 294.447 769.462 296.833 729.843 313.54V314.972C729.843 333.111 722.922 392.539 709.079 493.256C695.714 593.496 689.031 677.268 689.031 744.572C689.031 774.644 690.463 798.033 693.327 814.74C678.053 815.695 668.029 816.172 663.255 816.172Z" fill="#FF9797" fill-opacity="0.75"/>
</svg>
